<svg id="Layer_1" data-name="Layer 1" xmlns="http://www.w3.org/2000/svg" viewBox="0 0 905.71 905.71"><defs><style>.cls-1{fill:#1d9969;}.cls-2{fill:#12733b;}.cls-3{fill:none;}.cls-4{fill:#1f4d2a;}</style></defs><title>BAS LOGO</title><path class="cls-1" d="M649.15,573.78,459.25,377.89h0l-94.1-94.28L387,218.74a2.5,2.5,0,0,0-4.73-1.64l-42.15,125s0,.05,0,.07l-79,231.63,96.42-95.26,95.79,291,25.28-97.86,75.17-.81,30.6-97.14,64.72.1-.17.22Z"/><polygon class="cls-2" points="357.48 478.53 376.17 535.29 376.19 535.26 357.51 478.5 357.48 478.53"/><polygon class="cls-2" points="456.95 375.6 357.34 478.1 357.48 478.53 357.51 478.5 376.19 535.26 457.86 376.51 456.95 375.6"/><polygon class="cls-3" points="457.86 376.51 456.95 375.6 357.34 478.1 357.48 478.53 357.51 478.5 376.19 535.26 457.86 376.51"/><polygon class="cls-3" points="584.35 573.71 649.07 573.8 648.9 574.03 649.15 573.78 459.25 377.89 356.62 475.8 453.3 769.52 478.58 671.66 553.75 670.85 584.35 573.71"/><polygon class="cls-2" points="453.3 769.52 484.17 674.81 478.58 671.66 453.3 769.52"/><polygon class="cls-4" points="553.75 670.85 477.1 677.41 478.58 671.66 553.75 670.85"/><polygon class="cls-4" points="581.43 582.96 649.07 573.8 584.35 573.71 581.43 582.96"/><path class="cls-2" d="M715.13,833.94H187.27a27.55,27.55,0,0,1-27.51-27.52V493.93a17.54,17.54,0,0,0-17.52-17.51h-65a27.52,27.52,0,0,1-19-47.43L433.87,70.8a27.49,27.49,0,0,1,38,0L847.48,429h0a27.51,27.51,0,0,1-19,47.43H760.16a17.54,17.54,0,0,0-17.51,17.51V806.42A27.56,27.56,0,0,1,715.13,833.94ZM452.86,73.19A17.48,17.48,0,0,0,440.77,78L65.13,436.23a17.52,17.52,0,0,0,12.09,30.19h65a27.55,27.55,0,0,1,27.52,27.51V806.42a17.54,17.54,0,0,0,17.51,17.52H715.13a17.54,17.54,0,0,0,17.52-17.52V493.93a27.54,27.54,0,0,1,27.51-27.51h68.33a17.52,17.52,0,0,0,12.09-30.19L464.94,78A17.44,17.44,0,0,0,452.86,73.19Z"/><polygon class="cls-4" points="357.48 478.53 365.35 502.43 365.37 502.4 357.51 478.5 357.48 478.53"/><polygon class="cls-4" points="456.95 375.6 357.34 478.1 357.48 478.53 357.51 478.5 365.37 502.4 457.38 376.03 456.95 375.6"/></svg>