<svg width="120" height="120" viewBox="0 0 120 120" fill="none" xmlns="http://www.w3.org/2000/svg">
<path d="M86.0077 76.0217L60.8473 50.0677L48.3798 37.5763L51.2747 28.9815C51.3036 28.8984 51.2982 28.8072 51.2598 28.7281C51.2214 28.6489 51.1531 28.5883 51.07 28.5595C50.9869 28.5307 50.8958 28.536 50.8167 28.5744C50.7375 28.6128 50.6769 28.6811 50.6481 28.7642L45.0635 45.3258C45.0635 45.3258 45.0635 45.3324 45.0635 45.335L34.5966 76.0243L47.3715 63.4031L60.063 101.958L63.4124 88.9927L73.3719 88.8854L77.4262 76.0151L86.0011 76.0283L85.9786 76.0575L86.0077 76.0217Z" fill="white"/>
<path d="M47.3635 63.4017L49.8398 70.922L49.8425 70.9181L47.3675 63.3978L47.3635 63.4017Z" fill="white"/>
<path d="M60.5426 49.7643L47.345 63.3448L47.3635 63.4018L47.3675 63.3978L49.8425 70.9181L60.6631 49.8849L60.5426 49.7643Z" fill="white"/>
<path d="M60.059 101.956L64.149 89.4074L63.4084 88.9901L60.059 101.956Z" fill="white"/>
<path d="M73.3679 88.8828L63.2123 89.7519L63.4084 88.9901L73.3679 88.8828Z" fill="white"/>
<path d="M77.0353 77.238L85.9971 76.0243L77.4222 76.0124L77.0353 77.238Z" fill="white"/>
<path d="M94.7496 110.491H24.812C23.8455 110.49 22.919 110.105 22.2357 109.421C21.5525 108.738 21.1682 107.811 21.1671 106.845V65.4421C21.1661 64.8269 20.9211 64.2373 20.486 63.8024C20.0508 63.3675 19.461 63.1229 18.8458 63.1222H10.2338C9.50536 63.1222 8.7936 62.9041 8.19029 62.4958C7.58698 62.0876 7.11976 61.5081 6.84888 60.8319C6.578 60.1557 6.51587 59.4138 6.6705 58.702C6.82513 57.9901 7.18943 57.3409 7.71644 56.838L57.4847 9.38047C58.1625 8.73226 59.0642 8.37048 60.002 8.37048C60.9399 8.37048 61.8416 8.73226 62.5194 9.38047L112.285 56.8394C112.813 57.342 113.178 57.9912 113.333 58.7033C113.488 59.4154 113.426 60.1575 113.155 60.834C112.884 61.5105 112.416 62.0902 111.812 62.4983C111.209 62.9064 110.496 63.1242 109.768 63.1235H100.716C100.101 63.1246 99.5113 63.3693 99.0764 63.8042C98.6416 64.239 98.3968 64.8285 98.3958 65.4435V106.845C98.3944 107.811 98.0098 108.738 97.3263 109.421C96.6428 110.105 95.7162 110.49 94.7496 110.491ZM60.0007 9.69713C59.4047 9.69551 58.8309 9.92377 58.3989 10.3344L8.62932 57.7973C8.2941 58.1174 8.06241 58.5306 7.96409 58.9836C7.86577 59.4366 7.90532 59.9086 8.07764 60.3389C8.24996 60.7692 8.54717 61.1381 8.93098 61.398C9.31479 61.6579 9.76762 61.797 10.2312 61.7973H18.8432C19.8097 61.7983 20.7363 62.1826 21.4198 62.8659C22.1033 63.5492 22.488 64.4756 22.4894 65.4421V106.845C22.4901 107.46 22.7347 108.05 23.1696 108.485C23.6045 108.92 24.1941 109.165 24.8093 109.166H94.7496C95.365 109.165 95.955 108.921 96.3902 108.485C96.8254 108.05 97.0702 107.46 97.0709 106.845V65.4421C97.0719 64.4758 97.4563 63.5493 98.1396 62.866C98.8229 62.1827 99.7494 61.7983 100.716 61.7973H109.769C110.232 61.797 110.685 61.6579 111.069 61.398C111.453 61.1381 111.75 60.7692 111.922 60.3389C112.095 59.9086 112.134 59.4366 112.036 58.9836C111.938 58.5306 111.706 58.1174 111.371 57.7973L61.6012 10.3344C61.1698 9.92362 60.5964 9.6953 60.0007 9.69713Z" fill="white"/>
<path d="M47.3635 63.4017L48.4062 66.5683L48.4089 66.5643L47.3675 63.3978L47.3635 63.4017Z" fill="white"/>
<path d="M60.5426 49.7643L47.345 63.3448L47.3635 63.4018L47.3675 63.3978L48.4089 66.5644L60.5995 49.8213L60.5426 49.7643Z" fill="white"/>
</svg>
